<svg xmlns="http://www.w3.org/2000/svg" xmlns:xlink="http://www.w3.org/1999/xlink" width="92" height="92" viewBox="0 0 92 92"><defs><filter id="a" x="0" y="0" width="92" height="92" filterUnits="userSpaceOnUse"><feOffset dy="5" input="SourceAlpha"/><feGaussianBlur stdDeviation="6" result="b"/><feFlood flood-opacity="0.122"/><feComposite operator="in" in2="b"/><feComposite in="SourceGraphic"/></filter></defs><g transform="translate(-142 -658)"><g transform="translate(160 671)"><g transform="matrix(1, 0, 0, 1, -18, -13)" filter="url(#a)"><circle cx="28" cy="28" r="28" transform="translate(18 13)" fill="#fff"/></g><circle cx="24" cy="24" r="24" transform="translate(4 4)" fill="#fc8469"/><path d="M-2441.433,671.561c.258-1.1,2.076-3.117,4.905-3.7,1.646-.355,1.283.9.782,1.084a8.7,8.7,0,0,0-4.185,3C-2440.664,672.994-2441.691,672.658-2441.433,671.561Z" transform="translate(2454.444 -657.457)" fill="#fff"/><circle cx="0.681" cy="0.681" r="0.681" transform="translate(10.828 16.668)" fill="#fff"/></g><rect width="4.436" height="21.991" rx="1" transform="translate(177.004 701.562) rotate(-90)" fill="#fff"/><rect width="4.437" height="21.992" rx="1" transform="translate(185.781 688.348)" fill="#fff"/></g></svg>