<svg xmlns="http://www.w3.org/2000/svg" xmlns:xlink="http://www.w3.org/1999/xlink" width="333" height="151" viewBox="0 0 333 151"><defs><linearGradient id="a" x1="0.5" x2="0.5" y2="1" gradientUnits="objectBoundingBox"><stop offset="0" stop-color="#f6e58d"/><stop offset="1" stop-color="#fad382"/></linearGradient><filter id="b" x="0" y="0" width="333" height="151" filterUnits="userSpaceOnUse"><feOffset dy="7" input="SourceAlpha"/><feGaussianBlur stdDeviation="7.5" result="c"/><feFlood flood-opacity="0.102"/><feComposite operator="in" in2="c"/><feComposite in="SourceGraphic"/></filter></defs><g transform="translate(-22.5 -287.5)"><g transform="translate(45 303)"><g transform="matrix(1, 0, 0, 1, -22.5, -15.5)" filter="url(#b)"><rect width="288" height="106" rx="10" transform="translate(22.5 15.5)" fill="url(#a)"/></g></g><g transform="translate(-328.547 -659.525)"><g transform="translate(581.547 986.571)"><path d="M631.469,1077.972a34.8,34.8,0,0,1-19.381,5.858,35.049,35.049,0,0,1-9.553-1.319q-1.479-.419-2.9-.965l-.176-.066c-.478-.184-.95-.381-1.417-.585a34.783,34.783,0,0,1-5.333-2.924,17.121,17.121,0,0,1,5.333-4.785,16.924,16.924,0,0,1,4.5-1.782q.369-.09.745-.162.709-.138,1.439-.212c.14-.015.279-.028.421-.039q.69-.057,1.4-.057h11.1a17.453,17.453,0,0,1,1.817.095c.486.05.965.122,1.438.212q.284.056.564.118c.061.016.124.028.184.045a17.054,17.054,0,0,1,9.827,6.57Z" transform="translate(-584.078 -1014.468)" fill="#f6f1f1"/><g transform="translate(8.627 54.62)"><path d="M606.535,1070.933c-4,0-6.7,5.749-6.9,10.612l-.176-.066c-.478-.184-.95-.38-1.417-.585a34.783,34.783,0,0,1-5.333-2.924,17.052,17.052,0,0,1,9.829-6.567c.246-.059.495-.114.745-.161q.709-.139,1.439-.213c.14-.015.279-.028.421-.039q.69-.057,1.4-.057Z" transform="translate(-592.705 -1069.087)" fill="#dfeaef"/><path d="M615.012,1077.332l-7.212,3.99-2.194-10.837,4.482-1.949Z" transform="translate(-595.632 -1068.535)" fill="#dfeaef"/><path d="M617.772,1077.332l7.212,3.99,2.194-10.837-4.481-1.949Z" transform="translate(-598.391 -1068.535)" fill="#dfeaef"/></g><path d="M622.073,1062.437v7.433a6.085,6.085,0,0,1-12.17,0v-7.433Z" transform="translate(-587.979 -1012.511)" fill="#eaac9d"/><path d="M623.144,1071.483v.471a4.395,4.395,0,1,1-8.521.789q.609.037,1.225.037a21.126,21.126,0,0,0,7.3-1.3Z" transform="translate(-589.05 -1014.594)" fill="#ffcbbe"/><g transform="translate(0 32.102)"><path d="M592.755,1044.858a5.587,5.587,0,0,1-4.706,5.506,5.666,5.666,0,0,1-.9.072,5.578,5.578,0,1,1,0-11.156,5.652,5.652,0,0,1,.9.072,5.587,5.587,0,0,1,4.706,5.507Z" transform="translate(-581.547 -1039.279)" fill="#ffcbbe"/><path d="M594.444,1044.879a5.587,5.587,0,0,1-4.706,5.506,20.757,20.757,0,0,1,0-11.013A5.587,5.587,0,0,1,594.444,1044.879Z" transform="translate(-583.236 -1039.3)" fill="#eaac9d"/><ellipse cx="2.003" cy="1.994" rx="2.003" ry="1.994" transform="translate(3.601 3.584)" fill="#eaac9d"/><path d="M639.505,1044.858a5.586,5.586,0,0,0,4.705,5.506,5.673,5.673,0,0,0,.9.072,5.578,5.578,0,1,0,0-11.156,5.659,5.659,0,0,0-.9.072,5.586,5.586,0,0,0-4.705,5.507Z" transform="translate(-594.694 -1039.279)" fill="#ffcbbe"/><g transform="translate(44.811 0.071)"><path d="M639.505,1044.879a5.586,5.586,0,0,0,4.705,5.506,20.759,20.759,0,0,0,0-11.013A5.586,5.586,0,0,0,639.505,1044.879Z" transform="translate(-639.505 -1039.372)" fill="#eaac9d"/><ellipse cx="2.003" cy="1.994" rx="2.003" ry="1.994" transform="translate(3.6 3.513)" fill="#eaac9d"/></g></g><path d="M632.65,1036.332a21.054,21.054,0,0,1-42.108,0v-21.339H632.65Z" transform="translate(-583.587 -1001.584)" fill="#ffcbbe"/><path d="M615.3,1056.965c-.109.019-.219.038-.329.056a21.07,21.07,0,0,1-24.432-20.689v-21.339h7.424v21.339A20.988,20.988,0,0,0,615.3,1056.965Z" transform="translate(-583.588 -1001.584)" fill="#eaac9d"/><path d="M631.834,1029.837l-.89-13.257c-13.3,4.485-22.159,6.6-27.777,5.646,7.875-1.5,10.151-6.449,10.151-6.449a35.725,35.725,0,0,1-10.748,4.424,5.676,5.676,0,0,1-6.33-3.277.322.322,0,0,1-.018-.042s.125,12.954-6.5,12.954c0,0-8.913-29.138,5.172-25A32.257,32.257,0,0,1,605.054,999l.07-.025c.067-.025.135-.047.2-.068s.14-.045.2-.068c6.432-2.112,14.975-2.332,23.3,5.343,16.542,15.244,3,25.657,3,25.657Z" transform="translate(-582.771 -997.571)" fill="#2f373b"/><path d="M602.57,1020.628a5.677,5.677,0,0,1-6.33-3.277c-.007-.013-.013-.028-.019-.042s.125,12.954-6.5,12.954c0,0-8.912-29.139,5.172-25a32.27,32.27,0,0,1,10.156-5.842C596.708,1002.449,598.908,1020.628,602.57,1020.628Z" transform="translate(-582.771 -997.997)" fill="#181e21"/><path d="M616.125,1059.278a10.674,10.674,0,0,1-5.133-1.319.929.929,0,0,1-.37-1.266.939.939,0,0,1,1.272-.368,8.771,8.771,0,0,0,8.461,0,.939.939,0,0,1,1.272.368.929.929,0,0,1-.37,1.266,10.673,10.673,0,0,1-5.132,1.319Z" transform="translate(-588.116 -1011.077)" fill="#df9380"/><path d="M619.159,1051.444h-4.777a1.026,1.026,0,1,1,0-2.051h4.777a1.026,1.026,0,1,1,0,2.051Z" transform="translate(-588.762 -1009.507)" fill="#eaac9d"/><g transform="translate(16.1 33.155)"><path d="M622.235,1044.571a4.23,4.23,0,0,0,8.46,0Z" transform="translate(-606.877 -1041.551)" fill="#eaac9d"/><ellipse cx="3.033" cy="3.02" rx="3.033" ry="3.02" transform="translate(16.555 0)" fill="#2f373b"/><ellipse cx="1.3" cy="1.294" rx="1.3" ry="1.294" transform="translate(19.552 1.193)" fill="#fff"/><path d="M602.371,1044.571a4.23,4.23,0,0,0,8.459,0Z" transform="translate(-602.371 -1041.551)" fill="#eaac9d"/><ellipse cx="3.033" cy="3.02" rx="3.033" ry="3.02" transform="translate(1.196 0)" fill="#2f373b"/><path d="M607.661,1046.6a2.987,2.987,0,0,1-.709.084,3.02,3.02,0,1,1,0-6.04,2.993,2.993,0,0,1,.709.084,3.017,3.017,0,0,0,0,5.872Z" transform="translate(-602.722 -1040.647)" fill="#181e21"/><path d="M627.525,1046.6a2.987,2.987,0,0,1-.709.084,3.02,3.02,0,1,1,0-6.04,2.994,2.994,0,0,1,.709.084,3.017,3.017,0,0,0,0,5.872Z" transform="translate(-607.228 -1040.647)" fill="#181e21"/><ellipse cx="1.3" cy="1.294" rx="1.3" ry="1.294" transform="translate(4.194 1.193)" fill="#fff"/></g></g><path d="M610.266,1067.854v18.557H584.69v-16.987a5.042,5.042,0,0,1,5.056-5.034h17.048a3.464,3.464,0,0,1,3.425,2.917,1.51,1.51,0,0,1,.031.269A1.668,1.668,0,0,1,610.266,1067.854Z" transform="translate(-0.713 -17.885)" fill="#f6f1f1"/><path d="M590.743,1064.39v21.067H584.69v-16.036a5.042,5.042,0,0,1,5.053-5.031Z" transform="translate(-0.713 -17.885)" fill="#dfeaef"/><path d="M643.354,1072.566v14.57H617.77v-18.765a.214.214,0,0,1,.008-.069.557.557,0,0,1,.054-.223.832.832,0,0,1,.781-.539H638.3A5.04,5.04,0,0,1,643.354,1072.566Z" transform="translate(-8.217 -18.611)" fill="#f6f1f1"/><path d="M610.266,1068.53v18.834H584.69v-13.8a5.042,5.042,0,0,1,5.056-5.034Z" transform="translate(-0.713 -18.839)" fill="#5d50d8"/><path d="M643.354,1073.564v13.8H617.77V1068.53H638.3A5.047,5.047,0,0,1,643.354,1073.564Z" transform="translate(-8.217 -18.839)" fill="#7c66ff"/><rect width="7.167" height="18.834" transform="translate(605.973 1049.691)" fill="#3932b2"/><path d="M613.142,1072.688H620.3v3.2h-7.162Z" transform="translate(-7.167 -19.797)" fill="#ecc32e"/><path d="M639.607,1080.334H628.824a1.822,1.822,0,0,1-1.826-1.818v-2.808a1.822,1.822,0,0,1,1.826-1.818h10.782a1.822,1.822,0,0,1,1.826,1.818v2.808A1.822,1.822,0,0,1,639.607,1080.334Z" transform="translate(-10.31 -20.073)" fill="#ecc32e"/><path d="M629.726,1077.74a1.125,1.125,0,0,1,1.127-1.122h7.963a1.122,1.122,0,1,1,0,2.244h-7.963A1.125,1.125,0,0,1,629.726,1077.74Z" transform="translate(-10.929 -34.618)" fill="#2f373b"/><path d="M613.142,1079.964H620.3v3.2h-7.162Z" transform="translate(-7.167 -21.472)" fill="#ecc32e"/></g></g></svg>