<svg xmlns="http://www.w3.org/2000/svg" xmlns:xlink="http://www.w3.org/1999/xlink" width="333" height="151" viewBox="0 0 333 151"><defs><linearGradient id="a" x1="0.5" x2="0.5" y2="1" gradientUnits="objectBoundingBox"><stop offset="0" stop-color="#f6e58d"/><stop offset="1" stop-color="#fad382"/></linearGradient><filter id="b" x="0" y="0" width="333" height="151" filterUnits="userSpaceOnUse"><feOffset dy="7" input="SourceAlpha"/><feGaussianBlur stdDeviation="7.5" result="c"/><feFlood flood-opacity="0.102"/><feComposite operator="in" in2="c"/><feComposite in="SourceGraphic"/></filter></defs><g transform="translate(-22.5 -287.5)"><g transform="translate(45 303)"><g transform="matrix(1, 0, 0, 1, -22.5, -15.5)" filter="url(#b)"><rect width="288" height="106" rx="10" transform="translate(22.5 15.5)" fill="url(#a)"/></g></g><g transform="translate(-460.932 -1364.188)"><g transform="translate(704.695 1703.825)"><path d="M861.549,1741.257v25.075a8.892,8.892,0,0,1-7.973,8.558h-37.14l-5.078-4.7,2.479-44.865-10.157-9.4,2.308-8.191,17.038-2.136Z" transform="translate(-773.378 -1705.6)" fill="#ed4a4a"/><path d="M704.7,1873.471l25.042-25.392a20.806,20.806,0,0,1,29.713,0l25.042,25.392Z" transform="translate(-704.695 -1804.166)" fill="#ffecb3"/></g><g transform="translate(731.243 1703)"><path d="M816.708,1839.7H789.857v-27.161a4.441,4.441,0,0,1,4.441-4.441h17.97a4.441,4.441,0,0,1,4.441,4.441Z" transform="translate(-789.857 -1780.307)" fill="#027adb"/><path d="M824.826,1765.5h0a3.408,3.408,0,0,1-3.408-3.408v-33.667a3.408,3.408,0,0,1,3.408-3.408h0a3.408,3.408,0,0,1,3.408,3.408v33.667A3.408,3.408,0,0,1,824.826,1765.5Z" transform="translate(-811.4 -1718.029)" fill="#21bded"/><path d="M832.372,1725.028V1765.5a3.406,3.406,0,0,0,3.339-3.4v-33.668A3.406,3.406,0,0,0,832.372,1725.028Z" transform="translate(-818.877 -1718.036)" fill="#027adb"/><path d="M821.026,1714.154H801.679V1703h19.347Zm-14.6-4.75h9.846v-1.652H806.43v1.652Z" transform="translate(-797.927 -1703)" fill="#0d52b5"/><path d="M841.977,1703h-9.6v4.751h4.854v1.652h-4.854v4.75h9.6Z" transform="translate(-818.878 -1703)" fill="#144e93"/></g></g></g></svg>