<svg xmlns="http://www.w3.org/2000/svg" xmlns:xlink="http://www.w3.org/1999/xlink" width="76" height="76" viewBox="0 0 76 76"><defs><filter id="a" x="0" y="0" width="76" height="76" filterUnits="userSpaceOnUse"><feOffset dy="5" input="SourceAlpha"/><feGaussianBlur stdDeviation="6" result="b"/><feFlood flood-opacity="0.122"/><feComposite operator="in" in2="b"/><feComposite in="SourceGraphic"/></filter></defs><g transform="translate(-293 -15)"><g transform="translate(311 28)"><g transform="matrix(1, 0, 0, 1, -18, -13)" filter="url(#a)"><circle cx="20" cy="20" r="20" transform="translate(18 13)" fill="#fff"/></g><circle cx="16" cy="16" r="16" transform="translate(4 4)" fill="#fc8469"/><path d="M-2441.433,671.561c.258-1.1,2.076-3.117,4.905-3.7,1.646-.355,1.283.9.782,1.084a8.7,8.7,0,0,0-4.185,3C-2440.664,672.994-2441.691,672.658-2441.433,671.561Z" transform="translate(2450.281 -660.688)" fill="#fff"/><circle cx="0.681" cy="0.681" r="0.681" transform="translate(7.657 11.787)" fill="#fff"/></g><path d="M-2468.139-2180.226a.537.537,0,0,1,0-.761.511.511,0,0,1,.745,0,5.87,5.87,0,0,0,8.4,0,6.168,6.168,0,0,0,0-8.574,5.868,5.868,0,0,0-8.4,0,.555.555,0,0,1-.112.089h1.759a.341.341,0,0,1,.338.345.342.342,0,0,1-.338.345h-2.707a.329.329,0,0,1-.272-.151.341.341,0,0,1-.148-.278v-2.763a.342.342,0,0,1,.338-.346.342.342,0,0,1,.338.346v1.721a.551.551,0,0,1,.058-.069,6.911,6.911,0,0,1,9.891,0,7.264,7.264,0,0,1,0,10.1A6.911,6.911,0,0,1-2468.139-2180.226Z" transform="translate(2794.311 2233.789)" fill="#fff" stroke="#fff" stroke-width="1"/></g></svg>