<svg xmlns="http://www.w3.org/2000/svg" xmlns:xlink="http://www.w3.org/1999/xlink" width="76" height="76" viewBox="0 0 76 76"><defs><filter id="a" x="0" y="0" width="76" height="76" filterUnits="userSpaceOnUse"><feOffset dy="5" input="SourceAlpha"/><feGaussianBlur stdDeviation="6" result="b"/><feFlood flood-opacity="0.122"/><feComposite operator="in" in2="b"/><feComposite in="SourceGraphic"/></filter></defs><g transform="translate(-4 -15)"><g transform="translate(22 28)"><g transform="matrix(1, 0, 0, 1, -18, -13)" filter="url(#a)"><circle cx="20" cy="20" r="20" transform="translate(18 13)" fill="#fff"/></g><circle cx="16" cy="16" r="16" transform="translate(4 4)" fill="#fc8469"/><path d="M-2441.433,671.561c.258-1.1,2.076-3.117,4.905-3.7,1.646-.355,1.283.9.782,1.084a8.7,8.7,0,0,0-4.185,3C-2440.664,672.994-2441.691,672.658-2441.433,671.561Z" transform="translate(2450.281 -660.688)" fill="#fff"/><circle cx="0.681" cy="0.681" r="0.681" transform="translate(7.657 11.787)" fill="#fff"/></g><path d="M-2801.289-724.535a1.1,1.1,0,0,1-1.1,1.1h-11.635l4.53,4.529a1.1,1.1,0,0,1,0,1.554,1.1,1.1,0,0,1-1.554,0l-6.217-6.217a1.077,1.077,0,0,1-.284-.965,1.079,1.079,0,0,1,.285-.966l6.218-6.217a1.1,1.1,0,0,1,1.554,0,1.1,1.1,0,0,1,0,1.554l-4.531,4.53h11.635A1.1,1.1,0,0,1-2801.289-724.535Z" transform="translate(2851.613 772.813)" fill="#fff"/></g></svg>